<mxfile host="app.diagrams.net" modified="2022-04-30T01:55:02.502Z" agent="5.0 (Macintosh; Intel Mac OS X 10_15_7) AppleWebKit/537.36 (KHTML, like Gecko) Chrome/100.0.4896.127 Safari/537.36" etag="DvKZSnSmCg8OPda57oHf" version="17.5.0" type="github">
  <diagram id="wwjpr-9C7wOjbvfxTM_E" name="Page-1">
    <mxGraphModel dx="1248" dy="752" grid="1" gridSize="10" guides="1" tooltips="1" connect="1" arrows="1" fold="1" page="1" pageScale="1" pageWidth="827" pageHeight="1169" math="0" shadow="0">
      <root>
        <mxCell id="0" />
        <mxCell id="1" parent="0" />
        <mxCell id="TteLKIiODTK3f2nbDjQl-1" value="&lt;font style=&quot;font-size: 18px&quot; color=&quot;#0000cc&quot;&gt;&lt;b&gt;推荐&lt;/b&gt;&lt;/font&gt;" style="rounded=1;whiteSpace=wrap;html=1;strokeWidth=2;fillWeight=4;hachureGap=8;hachureAngle=45;fillColor=#E6E6E6;sketch=1;fontColor=#333333;strokeColor=#666666;" vertex="1" parent="1">
          <mxGeometry x="200" y="160" width="110" height="40" as="geometry" />
        </mxCell>
        <mxCell id="TteLKIiODTK3f2nbDjQl-2" value="&lt;font color=&quot;#0000cc&quot;&gt;&lt;span style=&quot;font-size: 18px&quot;&gt;&lt;b&gt;搜索&lt;/b&gt;&lt;/span&gt;&lt;/font&gt;" style="rounded=1;whiteSpace=wrap;html=1;strokeWidth=2;fillWeight=4;hachureGap=8;hachureAngle=45;fillColor=#E6E6E6;sketch=1;fontColor=#333333;strokeColor=#666666;" vertex="1" parent="1">
          <mxGeometry x="200" y="230" width="110" height="40" as="geometry" />
        </mxCell>
        <mxCell id="TteLKIiODTK3f2nbDjQl-3" value="&lt;font color=&quot;#0000cc&quot;&gt;&lt;span style=&quot;font-size: 18px&quot;&gt;&lt;b&gt;广告&lt;/b&gt;&lt;/span&gt;&lt;/font&gt;" style="rounded=1;whiteSpace=wrap;html=1;strokeWidth=2;fillWeight=4;hachureGap=8;hachureAngle=45;fillColor=#E6E6E6;sketch=1;fontColor=#333333;strokeColor=#666666;" vertex="1" parent="1">
          <mxGeometry x="200" y="300" width="110" height="40" as="geometry" />
        </mxCell>
        <mxCell id="TteLKIiODTK3f2nbDjQl-4" value="&lt;font color=&quot;#0000cc&quot;&gt;&lt;span style=&quot;font-size: 18px&quot;&gt;&lt;b&gt;定向&lt;/b&gt;&lt;/span&gt;&lt;/font&gt;" style="rounded=1;whiteSpace=wrap;html=1;strokeWidth=2;fillWeight=4;hachureGap=8;hachureAngle=45;fillColor=#E6E6E6;sketch=1;fontColor=#333333;strokeColor=#666666;" vertex="1" parent="1">
          <mxGeometry x="200" y="370" width="110" height="40" as="geometry" />
        </mxCell>
        <mxCell id="TteLKIiODTK3f2nbDjQl-5" value="&lt;font color=&quot;#0000cc&quot;&gt;&lt;span style=&quot;font-size: 18px&quot;&gt;&lt;b&gt;PUSH&lt;/b&gt;&lt;/span&gt;&lt;/font&gt;" style="rounded=1;whiteSpace=wrap;html=1;strokeWidth=2;fillWeight=4;hachureGap=8;hachureAngle=45;fillColor=#E6E6E6;sketch=1;fontColor=#333333;strokeColor=#666666;" vertex="1" parent="1">
          <mxGeometry x="200" y="440" width="110" height="40" as="geometry" />
        </mxCell>
        <mxCell id="TteLKIiODTK3f2nbDjQl-6" value="&lt;font color=&quot;#0000cc&quot;&gt;&lt;span style=&quot;font-size: 18px&quot;&gt;&lt;b&gt;实验&lt;/b&gt;&lt;/span&gt;&lt;/font&gt;" style="rounded=1;whiteSpace=wrap;html=1;strokeWidth=2;fillWeight=4;hachureGap=8;hachureAngle=45;fillColor=#E6E6E6;sketch=1;fontColor=#333333;strokeColor=#666666;" vertex="1" parent="1">
          <mxGeometry x="200" y="510" width="110" height="40" as="geometry" />
        </mxCell>
        <mxCell id="TteLKIiODTK3f2nbDjQl-7" value="&lt;font color=&quot;#ff0000&quot;&gt;&lt;b&gt;人群&lt;/b&gt;&lt;/font&gt;" style="ellipse;whiteSpace=wrap;html=1;strokeWidth=2;fillWeight=2;hachureGap=8;fillColor=#FFFFFF;fillStyle=dots;sketch=1;fontSize=18;fontColor=#0000CC;" vertex="1" parent="1">
          <mxGeometry x="460" y="210" width="120" height="60" as="geometry" />
        </mxCell>
        <mxCell id="TteLKIiODTK3f2nbDjQl-8" value="&lt;font color=&quot;#ff0000&quot;&gt;&lt;b&gt;分析&lt;/b&gt;&lt;/font&gt;" style="ellipse;whiteSpace=wrap;html=1;strokeWidth=2;fillWeight=2;hachureGap=8;fillColor=#FFFFFF;fillStyle=dots;sketch=1;fontSize=18;fontColor=#0000CC;" vertex="1" parent="1">
          <mxGeometry x="460" y="320" width="120" height="60" as="geometry" />
        </mxCell>
        <mxCell id="TteLKIiODTK3f2nbDjQl-9" value="&lt;font color=&quot;#ff0000&quot;&gt;&lt;b&gt;服务&lt;/b&gt;&lt;/font&gt;" style="ellipse;whiteSpace=wrap;html=1;strokeWidth=2;fillWeight=2;hachureGap=8;fillColor=#FFFFFF;fillStyle=dots;sketch=1;fontSize=18;fontColor=#0000CC;strokeColor=#000000;" vertex="1" parent="1">
          <mxGeometry x="460" y="440" width="120" height="60" as="geometry" />
        </mxCell>
        <mxCell id="TteLKIiODTK3f2nbDjQl-12" value="" style="endArrow=classic;html=1;rounded=0;fontSize=18;fontColor=#FF0000;curved=1;exitX=1;exitY=0.5;exitDx=0;exitDy=0;entryX=0;entryY=0;entryDx=0;entryDy=0;" edge="1" parent="1" source="TteLKIiODTK3f2nbDjQl-1" target="TteLKIiODTK3f2nbDjQl-7">
          <mxGeometry width="50" height="50" relative="1" as="geometry">
            <mxPoint x="400" y="150" as="sourcePoint" />
            <mxPoint x="450" y="100" as="targetPoint" />
          </mxGeometry>
        </mxCell>
        <mxCell id="TteLKIiODTK3f2nbDjQl-13" value="" style="endArrow=classic;html=1;rounded=0;fontSize=18;fontColor=#FF0000;curved=1;exitX=1;exitY=0.5;exitDx=0;exitDy=0;entryX=0;entryY=0.5;entryDx=0;entryDy=0;" edge="1" parent="1" source="TteLKIiODTK3f2nbDjQl-2" target="TteLKIiODTK3f2nbDjQl-7">
          <mxGeometry width="50" height="50" relative="1" as="geometry">
            <mxPoint x="320" y="190" as="sourcePoint" />
            <mxPoint x="487.57359312880703" y="228.78679656440352" as="targetPoint" />
          </mxGeometry>
        </mxCell>
        <mxCell id="TteLKIiODTK3f2nbDjQl-14" value="" style="endArrow=classic;html=1;rounded=0;fontSize=18;fontColor=#FF0000;curved=1;exitX=1;exitY=0.5;exitDx=0;exitDy=0;entryX=0;entryY=1;entryDx=0;entryDy=0;" edge="1" parent="1" source="TteLKIiODTK3f2nbDjQl-3" target="TteLKIiODTK3f2nbDjQl-7">
          <mxGeometry width="50" height="50" relative="1" as="geometry">
            <mxPoint x="320" y="260" as="sourcePoint" />
            <mxPoint x="497.57359312880703" y="238.78679656440352" as="targetPoint" />
          </mxGeometry>
        </mxCell>
        <mxCell id="TteLKIiODTK3f2nbDjQl-15" value="" style="endArrow=classic;html=1;rounded=0;fontSize=18;fontColor=#FF0000;curved=1;exitX=1;exitY=0.5;exitDx=0;exitDy=0;entryX=0;entryY=0.5;entryDx=0;entryDy=0;" edge="1" parent="1" source="TteLKIiODTK3f2nbDjQl-4" target="TteLKIiODTK3f2nbDjQl-9">
          <mxGeometry width="50" height="50" relative="1" as="geometry">
            <mxPoint x="330" y="270" as="sourcePoint" />
            <mxPoint x="507.57359312880703" y="248.78679656440352" as="targetPoint" />
          </mxGeometry>
        </mxCell>
        <mxCell id="TteLKIiODTK3f2nbDjQl-16" value="" style="endArrow=classic;html=1;rounded=0;fontSize=18;fontColor=#FF0000;curved=1;exitX=1;exitY=0.5;exitDx=0;exitDy=0;entryX=0;entryY=0.5;entryDx=0;entryDy=0;" edge="1" parent="1" source="TteLKIiODTK3f2nbDjQl-5" target="TteLKIiODTK3f2nbDjQl-8">
          <mxGeometry width="50" height="50" relative="1" as="geometry">
            <mxPoint x="340" y="280" as="sourcePoint" />
            <mxPoint x="517.573593128807" y="258.7867965644035" as="targetPoint" />
          </mxGeometry>
        </mxCell>
        <mxCell id="TteLKIiODTK3f2nbDjQl-17" value="" style="endArrow=classic;html=1;rounded=0;fontSize=18;fontColor=#FF0000;curved=1;exitX=1;exitY=0.5;exitDx=0;exitDy=0;entryX=0;entryY=0.5;entryDx=0;entryDy=0;" edge="1" parent="1" source="TteLKIiODTK3f2nbDjQl-6" target="TteLKIiODTK3f2nbDjQl-9">
          <mxGeometry width="50" height="50" relative="1" as="geometry">
            <mxPoint x="320" y="470" as="sourcePoint" />
            <mxPoint x="470" y="360" as="targetPoint" />
          </mxGeometry>
        </mxCell>
        <mxCell id="TteLKIiODTK3f2nbDjQl-18" value="" style="endArrow=classic;html=1;rounded=0;fontSize=18;fontColor=#FF0000;curved=1;exitX=1;exitY=0.5;exitDx=0;exitDy=0;entryX=0;entryY=0.5;entryDx=0;entryDy=0;" edge="1" parent="1" source="TteLKIiODTK3f2nbDjQl-4" target="TteLKIiODTK3f2nbDjQl-8">
          <mxGeometry width="50" height="50" relative="1" as="geometry">
            <mxPoint x="320" y="400" as="sourcePoint" />
            <mxPoint x="470" y="480" as="targetPoint" />
          </mxGeometry>
        </mxCell>
        <mxCell id="TteLKIiODTK3f2nbDjQl-19" value="" style="endArrow=classic;html=1;rounded=0;fontSize=18;fontColor=#FF0000;curved=1;exitX=1;exitY=0.5;exitDx=0;exitDy=0;entryX=0;entryY=1;entryDx=0;entryDy=0;" edge="1" parent="1" source="TteLKIiODTK3f2nbDjQl-4" target="TteLKIiODTK3f2nbDjQl-7">
          <mxGeometry width="50" height="50" relative="1" as="geometry">
            <mxPoint x="320" y="400" as="sourcePoint" />
            <mxPoint x="470" y="360" as="targetPoint" />
          </mxGeometry>
        </mxCell>
        <mxCell id="TteLKIiODTK3f2nbDjQl-20" value="" style="endArrow=classic;html=1;rounded=0;fontSize=18;fontColor=#FF0000;curved=1;exitX=1;exitY=0.5;exitDx=0;exitDy=0;entryX=0;entryY=0.5;entryDx=0;entryDy=0;" edge="1" parent="1" source="TteLKIiODTK3f2nbDjQl-3" target="TteLKIiODTK3f2nbDjQl-9">
          <mxGeometry width="50" height="50" relative="1" as="geometry">
            <mxPoint x="320" y="330" as="sourcePoint" />
            <mxPoint x="487.57359312880703" y="271.2132034355965" as="targetPoint" />
          </mxGeometry>
        </mxCell>
        <mxCell id="TteLKIiODTK3f2nbDjQl-21" value="" style="endArrow=classic;html=1;rounded=0;fontSize=18;fontColor=#FF0000;curved=1;exitX=1;exitY=0.5;exitDx=0;exitDy=0;entryX=0;entryY=0;entryDx=0;entryDy=0;" edge="1" parent="1" source="TteLKIiODTK3f2nbDjQl-1" target="TteLKIiODTK3f2nbDjQl-9">
          <mxGeometry width="50" height="50" relative="1" as="geometry">
            <mxPoint x="330" y="340" as="sourcePoint" />
            <mxPoint x="497.57359312880703" y="281.2132034355965" as="targetPoint" />
          </mxGeometry>
        </mxCell>
        <mxCell id="TteLKIiODTK3f2nbDjQl-22" value="&lt;b&gt;画像&lt;/b&gt;" style="shape=cylinder3;whiteSpace=wrap;html=1;boundedLbl=1;backgroundOutline=1;size=15;fontSize=18;fontColor=#FF0000;strokeColor=#000000;fillColor=#FFFFFF;strokeWidth=2;dashed=1;" vertex="1" parent="1">
          <mxGeometry x="710" y="280" width="100" height="140" as="geometry" />
        </mxCell>
        <mxCell id="TteLKIiODTK3f2nbDjQl-23" value="" style="endArrow=classic;html=1;rounded=0;fontSize=18;fontColor=#FF0000;curved=1;exitX=1;exitY=0.5;exitDx=0;exitDy=0;entryX=0;entryY=0;entryDx=0;entryDy=15;entryPerimeter=0;" edge="1" parent="1" source="TteLKIiODTK3f2nbDjQl-7" target="TteLKIiODTK3f2nbDjQl-22">
          <mxGeometry width="50" height="50" relative="1" as="geometry">
            <mxPoint x="320" y="190" as="sourcePoint" />
            <mxPoint x="487.57359312880703" y="228.78679656440352" as="targetPoint" />
          </mxGeometry>
        </mxCell>
        <mxCell id="TteLKIiODTK3f2nbDjQl-24" value="" style="endArrow=classic;html=1;rounded=0;fontSize=18;fontColor=#FF0000;curved=1;entryX=0;entryY=0.5;entryDx=0;entryDy=0;entryPerimeter=0;exitX=1;exitY=0.5;exitDx=0;exitDy=0;" edge="1" parent="1" source="TteLKIiODTK3f2nbDjQl-8" target="TteLKIiODTK3f2nbDjQl-22">
          <mxGeometry width="50" height="50" relative="1" as="geometry">
            <mxPoint x="620" y="380" as="sourcePoint" />
            <mxPoint x="497.57359312880703" y="238.78679656440352" as="targetPoint" />
          </mxGeometry>
        </mxCell>
        <mxCell id="TteLKIiODTK3f2nbDjQl-25" value="" style="endArrow=classic;html=1;rounded=0;fontSize=18;fontColor=#FF0000;curved=1;exitX=1;exitY=0.5;exitDx=0;exitDy=0;entryX=0;entryY=1;entryDx=0;entryDy=-15;entryPerimeter=0;" edge="1" parent="1" source="TteLKIiODTK3f2nbDjQl-9" target="TteLKIiODTK3f2nbDjQl-22">
          <mxGeometry width="50" height="50" relative="1" as="geometry">
            <mxPoint x="340" y="210" as="sourcePoint" />
            <mxPoint x="507.57359312880703" y="248.78679656440352" as="targetPoint" />
          </mxGeometry>
        </mxCell>
        <mxCell id="TteLKIiODTK3f2nbDjQl-26" value="" style="shape=flexArrow;endArrow=classic;html=1;rounded=0;fontSize=18;fontColor=#FF0000;curved=1;" edge="1" parent="1">
          <mxGeometry width="50" height="50" relative="1" as="geometry">
            <mxPoint x="200" y="120" as="sourcePoint" />
            <mxPoint x="820" y="120" as="targetPoint" />
          </mxGeometry>
        </mxCell>
        <mxCell id="TteLKIiODTK3f2nbDjQl-27" value="面向业务场景的功能设计" style="text;html=1;strokeColor=none;fillColor=none;align=center;verticalAlign=middle;whiteSpace=wrap;rounded=0;dashed=1;fontSize=18;fontColor=#000000;" vertex="1" parent="1">
          <mxGeometry x="380" y="80" width="280" height="30" as="geometry" />
        </mxCell>
      </root>
    </mxGraphModel>
  </diagram>
</mxfile>
